<?xml version="1.0" standalone="no"?>
<!DOCTYPE svg PUBLIC "-//W3C//DTD SVG 20010904//EN"
 "http://www.w3.org/TR/2001/REC-SVG-20010904/DTD/svg10.dtd">
<svg version="1.0" xmlns="http://www.w3.org/2000/svg"
 width="512.000000pt" height="512.000000pt" viewBox="0 0 512.000000 512.000000"
 preserveAspectRatio="xMidYMid meet">

<g transform="translate(0.000000,512.000000) scale(0.100000,-0.100000)"
fill="#000000" stroke="none">
<path d="M1830 4792 c-50 -25 -80 -75 -80 -132 0 -54 -77 84 840 -1503 l605
-1047 843 0 843 0 -12 23 c-47 88 -1515 2616 -1528 2631 -40 46 -39 46 -778
46 -645 0 -701 -1 -733 -18z"/>
<path d="M783 3053 c-413 -714 -758 -1312 -767 -1330 -9 -18 -16 -46 -16 -63
0 -38 13 -64 379 -740 215 -399 308 -562 330 -579 60 -46 144 -37 198 21 18
19 1456 2499 1469 2533 5 12 -820 1448 -834 1453 -4 1 -346 -582 -759 -1295z"/>
<path d="M1700 1108 c-223 -386 -417 -723 -433 -750 l-28 -48 1569 2 1569 3
32 25 c24 19 108 165 332 580 365 674 379 702 379 740 0 50 -35 107 -80 130
-39 20 -56 20 -1487 20 l-1448 0 -405 -702z"/>
</g>
</svg>
